<svg width="42" height="45" viewBox="0 0 42 45" fill="none" xmlns="http://www.w3.org/2000/svg">
<path d="M41.2135 22.7829C41.2135 34.8095 32.1186 44.4994 20.9705 44.4994C9.8224 44.4994 0.727539 34.8095 0.727539 22.7829C0.727539 10.7563 9.8224 1.06641 20.9705 1.06641C32.1186 1.06641 41.2135 10.7563 41.2135 22.7829Z" stroke="#CCCCCC"/>
<path d="M32.0172 16.1822C31.1891 16.5745 30.3109 16.8322 29.4118 16.9466C30.3595 16.3395 31.0689 15.3841 31.4076 14.2583C30.5182 14.8252 29.543 15.2226 28.5267 15.4375C27.8439 14.6551 26.939 14.1363 25.9526 13.9616C24.9662 13.7869 23.9535 13.9661 23.072 14.4714C22.1905 14.9768 21.4895 15.7798 21.0781 16.7558C20.6667 17.7318 20.5679 18.8261 20.7971 19.8684C18.9933 19.7716 17.2287 19.2696 15.6179 18.3949C14.0071 17.5203 12.586 16.2926 11.4469 14.7916C11.0437 15.5333 10.8318 16.3765 10.833 17.2347C10.833 18.9193 11.6335 20.4075 12.8505 21.2788C12.1303 21.2545 11.4259 21.0462 10.7961 20.6712V20.7316C10.7963 21.8535 11.1588 22.9408 11.8221 23.8092C12.4853 24.6775 13.4086 25.2735 14.4353 25.496C13.7667 25.69 13.0656 25.7186 12.3852 25.5796C12.6746 26.5453 13.2388 27.3899 13.9988 27.995C14.7587 28.6002 15.6763 28.9357 16.6231 28.9545C15.6821 29.7461 14.6047 30.3312 13.4524 30.6764C12.3001 31.0217 11.0956 31.1203 9.90771 30.9667C11.9813 32.395 14.3952 33.1532 16.8607 33.1508C25.2053 33.1508 29.7686 25.7469 29.7686 19.3259C29.7686 19.1168 29.7632 18.9053 29.7545 18.6985C30.6428 18.011 31.4094 17.1592 32.0183 16.1833L32.0172 16.1822Z" fill="#AAAAAA"/>
</svg>
