<svg width="42" height="45" viewBox="0 0 42 45" fill="none" xmlns="http://www.w3.org/2000/svg">
<path d="M41.3566 22.7829C41.3566 34.8095 32.2617 44.4994 21.1136 44.4994C9.96546 44.4994 0.870605 34.8095 0.870605 22.7829C0.870605 10.7563 9.96546 1.06641 21.1136 1.06641C32.2617 1.06641 41.3566 10.7563 41.3566 22.7829Z" stroke="#CCCCCC"/>
<path d="M21.8051 20.6355C21.0899 20.6355 20.404 20.9398 19.8983 21.4814C19.3926 22.023 19.1085 22.7577 19.1085 23.5236C19.1085 24.2896 19.3926 25.0242 19.8983 25.5659C20.404 26.1075 21.0899 26.4118 21.8051 26.4118C22.5202 26.4118 23.2061 26.1075 23.7118 25.5659C24.2175 25.0242 24.5016 24.2896 24.5016 23.5236C24.5016 22.7577 24.2175 22.023 23.7118 21.4814C23.2061 20.9398 22.5202 20.6355 21.8051 20.6355ZM21.8051 18.7101C22.997 18.7101 24.1402 19.2172 24.983 20.1199C25.8259 21.0226 26.2994 22.247 26.2994 23.5236C26.2994 24.8003 25.8259 26.0246 24.983 26.9273C24.1402 27.8301 22.997 28.3372 21.8051 28.3372C20.6131 28.3372 19.4699 27.8301 18.6271 26.9273C17.7842 26.0246 17.3107 24.8003 17.3107 23.5236C17.3107 22.247 17.7842 21.0226 18.6271 20.1199C19.4699 19.2172 20.6131 18.7101 21.8051 18.7101V18.7101ZM27.6477 18.4694C27.6477 18.7885 27.5293 19.0946 27.3186 19.3203C27.1079 19.546 26.8221 19.6728 26.5241 19.6728C26.2261 19.6728 25.9403 19.546 25.7296 19.3203C25.5189 19.0946 25.4005 18.7885 25.4005 18.4694C25.4005 18.1502 25.5189 17.8441 25.7296 17.6185C25.9403 17.3928 26.2261 17.266 26.5241 17.266C26.8221 17.266 27.1079 17.3928 27.3186 17.6185C27.5293 17.8441 27.6477 18.1502 27.6477 18.4694V18.4694ZM21.8051 15.8219C19.5813 15.8219 19.2181 15.8287 18.1835 15.8778C17.4788 15.9134 17.006 16.0145 16.5674 16.1974C16.1773 16.3591 15.8959 16.5526 15.5966 16.8742C15.3153 17.1653 15.0989 17.5207 14.9638 17.9139C14.793 18.3856 14.6986 18.8911 14.6663 19.6449C14.6195 20.7077 14.6141 21.0793 14.6141 23.5236C14.6141 25.9054 14.6204 26.2943 14.6663 27.4024C14.6995 28.1562 14.7939 28.6636 14.9638 29.1324C15.1166 29.5512 15.2964 29.8525 15.5948 30.1721C15.8977 30.4956 16.1791 30.6891 16.5656 30.8489C17.0096 31.0328 17.4824 31.1349 18.1835 31.1695C19.1759 31.2196 19.5228 31.2254 21.8051 31.2254C24.0288 31.2254 24.392 31.2186 25.4266 31.1695C26.1295 31.1339 26.6032 31.0328 27.0418 30.8509C27.431 30.6882 27.7142 30.4947 28.0126 30.175C28.3155 29.8506 28.4962 29.5493 28.6454 29.1353C28.8162 28.6607 28.9115 28.1533 28.9438 27.4024C28.9906 26.3396 28.996 25.968 28.996 23.5236C28.996 21.1419 28.9897 20.7529 28.9438 19.6449C28.9106 18.892 28.8162 18.3837 28.6454 17.9139C28.5099 17.5211 28.294 17.1658 28.0135 16.8742C27.7418 16.5727 27.4099 16.341 27.0427 16.1964C26.6023 16.0135 26.1295 15.9124 25.4266 15.8778C24.4342 15.8277 24.0873 15.8219 21.8051 15.8219ZM21.8051 13.8965C24.2473 13.8965 24.552 13.9061 25.5102 13.9542C26.4675 14.0024 27.1191 14.1632 27.6926 14.4019C28.2859 14.6464 28.7856 14.9776 29.2854 15.5119C29.7425 15.9932 30.0961 16.5753 30.3218 17.2179C30.5438 17.8311 30.6948 18.53 30.7398 19.5553C30.782 20.5816 30.7937 20.9079 30.7937 23.5236C30.7937 26.1393 30.7847 26.4657 30.7398 27.4919C30.6948 28.5172 30.5438 29.2152 30.3218 29.8294C30.0968 30.4723 29.743 31.0546 29.2854 31.5354C28.8359 32.0247 28.2924 32.4035 27.6926 32.6454C27.12 32.8832 26.4675 33.0449 25.5102 33.093C24.552 33.1383 24.2473 33.1508 21.8051 33.1508C19.3628 33.1508 19.0581 33.1412 18.0999 33.093C17.1426 33.0449 16.491 32.8832 15.9175 32.6454C15.3173 32.4042 14.7737 32.0253 14.3247 31.5354C13.8675 31.0542 13.5139 30.472 13.2883 29.8294C13.0654 29.2162 12.9153 28.5172 12.8703 27.4919C12.8281 26.4657 12.8164 26.1393 12.8164 23.5236C12.8164 20.9079 12.8254 20.5816 12.8703 19.5553C12.9153 18.5291 13.0654 17.8321 13.2883 17.2179C13.5132 16.5749 13.867 15.9926 14.3247 15.5119C14.7738 15.0221 15.3174 14.6433 15.9175 14.4019C16.491 14.1632 17.1417 14.0024 18.0999 13.9542C19.0581 13.909 19.3628 13.8965 21.8051 13.8965Z" fill="#AAAAAA"/>
</svg>
