<svg width="42" height="45" viewBox="0 0 42 45" fill="none" xmlns="http://www.w3.org/2000/svg">
<path d="M41.4996 22.7829C41.4996 34.8095 32.4048 44.4994 21.2567 44.4994C10.1085 44.4994 1.01367 34.8095 1.01367 22.7829C1.01367 10.7563 10.1085 1.06641 21.2567 1.06641C32.4048 1.06641 41.4996 10.7563 41.4996 22.7829Z" stroke="#CCCCCC"/>
<path d="M15.5714 16.0368C15.5711 16.6042 15.3604 17.1482 14.9857 17.5492C14.6109 17.9502 14.1028 18.1753 13.573 18.175C13.0433 18.1747 12.5354 17.949 12.161 17.5477C11.7866 17.1463 11.5764 16.602 11.5767 16.0347C11.5769 15.4673 11.7876 14.9233 12.1624 14.5223C12.5371 14.1213 13.0453 13.8962 13.575 13.8965C14.1048 13.8968 14.6127 14.1224 14.9871 14.5238C15.3615 14.9252 15.5717 15.4694 15.5714 16.0368V16.0368ZM15.6313 19.7591H11.6366V33.1508H15.6313V19.7591ZM21.943 19.7591H17.9682V33.1508H21.9031V26.1234C21.9031 22.2085 26.6668 21.8449 26.6668 26.1234V33.1508H30.6116V24.6687C30.6116 18.0691 23.5609 18.3151 21.9031 21.5561L21.943 19.7591V19.7591Z" fill="#AAAAAA"/>
</svg>
