<svg width="96" height="87" viewBox="0 0 96 87" fill="none" xmlns="http://www.w3.org/2000/svg">
<path d="M35.0648 60.8606H34.7098L21.0454 28.4067L11.2852 4.99246C11.7719 4.51138 12.3062 4.06524 12.8823 3.65874C14.5078 2.49383 16.4002 1.61722 18.4442 1.08223C20.4882 0.547234 22.6411 0.36504 24.7721 0.546726L38.6139 33.4452L48.3742 56.563C46.6982 58.0829 44.6264 59.2609 42.3188 60.006C40.0111 60.7512 37.5292 61.0435 35.0648 60.8606Z" fill="url(#paint0_linear_29852_5062)"/>
<path d="M8.97672 61.0113C7.94872 60.9194 6.95282 60.6579 6.04681 60.242C5.1408 59.8261 4.34272 59.2641 3.69888 58.5886C3.05504 57.913 2.57826 57.1375 2.2962 56.3069C2.01414 55.4763 1.93242 54.6071 2.05579 53.75L7.55704 12.2564C7.93404 9.36902 9.42946 6.66333 11.8161 4.55047L13.2357 3.36494C14.8674 2.27117 16.7429 1.45902 18.7536 0.97567C20.7642 0.492316 22.8698 0.34739 24.9481 0.549306L17.6722 55.2319C17.4233 56.9577 16.4105 58.5435 14.8329 59.6776C14.018 60.2227 13.0777 60.6222 12.0704 60.8517C11.0631 61.0811 10.0102 61.1354 8.97672 61.0113Z" fill="url(#paint1_linear_29852_5062)"/>
<path d="M69.1346 60.7127L54.0505 37.4467L43.7578 21.5903L44.6451 20.8493C46.2202 19.6651 48.0797 18.775 50.0993 18.2383C52.119 17.7017 54.2525 17.5309 56.3575 17.7373L56.7124 18.0337L71.619 41.2997L81.9117 57.008L81.0244 57.6007C79.4224 58.7968 77.5328 59.6931 75.4823 60.2298C73.4317 60.7666 71.2675 60.9312 69.1346 60.7127Z" fill="url(#paint2_linear_29852_5062)"/>
<path d="M68.959 60.719L72.1533 37.1566C72.2717 36.2841 72.6 35.4406 73.1184 34.6766C73.6368 33.9127 74.3347 33.2441 75.1701 32.7108C75.9468 32.1615 76.8559 31.7582 77.8357 31.528C78.8155 31.2979 79.8431 31.2464 80.8488 31.3771C81.8924 31.4506 82.9076 31.6986 83.834 32.1065C84.7605 32.5143 85.5792 33.0736 86.2415 33.7511C86.9037 34.4286 87.3961 35.2104 87.6891 36.05C87.9821 36.8897 88.0699 37.7699 87.9472 38.6385L86.5275 49.1601C86.0668 52.3541 84.239 55.3014 81.3812 57.4588C81.2037 57.607 80.8488 57.7552 80.6713 58.0515C79.0263 59.1193 77.1445 59.9047 75.1343 60.3625C73.1242 60.8203 71.0254 60.9415 68.959 60.719Z" fill="url(#paint3_linear_29852_5062)"/>
<path d="M34.707 60.7135L38.9661 28.8524C39.485 25.8334 41.241 23.0578 43.9349 20.9983C44.1449 20.7248 44.4567 20.5166 44.8222 20.4055C48.0271 18.2719 52.0998 17.2623 56.1797 17.5899H56.3571L52.2756 49.5992C51.8004 52.4061 50.243 55.0072 47.8391 57.0088C46.1557 58.448 44.0882 59.534 41.8058 60.1779C39.5233 60.8219 37.0907 61.0054 34.707 60.7135Z" fill="url(#paint4_linear_29852_5062)"/>
<path d="M7.04114 85.9382C7.4311 85.9382 7.67825 85.6104 7.75514 85.3713L9.5017 80.0235H9.63351V85.3713C9.63351 85.6923 9.82574 85.9382 10.0894 85.9382H12.0391C12.3028 85.9382 12.495 85.6923 12.495 85.3713V75.1675C12.495 74.8465 12.3028 74.6074 12.0391 74.6074H9.30946C8.91402 74.6074 8.66687 74.9284 8.58997 75.1675L6.31066 82.052H6.18434L3.90503 75.1675C3.82814 74.9284 3.58099 74.6074 3.19103 74.6074H0.455863C0.197724 74.6074 0 74.8465 0 75.1675V85.3713C0 85.6923 0.197724 85.9382 0.455863 85.9382H2.40563C2.66926 85.9382 2.86149 85.6923 2.86149 85.3713V80.0235H2.99331L4.75085 85.3713C4.82774 85.6104 5.07489 85.9382 5.46485 85.9382H7.04114Z" fill="#2F327D"/>
<path d="M20.1735 75.1675C20.1735 74.8465 19.9812 74.6074 19.7231 74.6074H14.3846C14.1209 74.6074 13.9287 74.8465 13.9287 75.1675V76.7862C13.9287 77.114 14.1209 77.353 14.3846 77.353H15.6203V83.1858H14.3846C14.1209 83.1858 13.9287 83.4248 13.9287 83.7526V85.3713C13.9287 85.6923 14.1209 85.9382 14.3846 85.9382H19.7231C19.9812 85.9382 20.1735 85.6923 20.1735 85.3713V83.7526C20.1735 83.4248 19.9812 83.1858 19.7231 83.1858H18.4818V77.353H19.7231C19.9812 77.353 20.1735 77.114 20.1735 76.7862V75.1675Z" fill="#2F327D"/>
<path d="M28.2467 81.0822L24.9897 75.1675C24.8634 74.9284 24.5998 74.6074 24.2757 74.6074H22.0623C21.8042 74.6074 21.6064 74.8465 21.6064 75.1675V85.3713C21.6064 85.6923 21.8042 85.9382 22.0623 85.9382H24.0176C24.2757 85.9382 24.4734 85.6923 24.4734 85.3713V79.4635H24.5998L27.8567 85.3713C27.983 85.6104 28.2467 85.9382 28.5707 85.9382H30.7841C31.0422 85.9382 31.24 85.6923 31.24 85.3713V75.1675C31.24 74.8465 31.0422 74.6074 30.7841 74.6074H28.8343C28.5707 74.6074 28.3785 74.8465 28.3785 75.1675V81.0822H28.2467Z" fill="#2F327D"/>
<path d="M33.41 85.6101H37.5127C41.0278 85.6101 42.8512 83.3426 42.8512 79.9413C42.8512 76.54 41.0278 74.2793 37.5127 74.2793H33.41C33.1518 74.2793 32.9541 74.5183 32.9541 74.8393V85.0432C32.9541 85.3642 33.1518 85.6101 33.41 85.6101ZM35.8211 83.0147V76.8678H37.5127C39.0121 76.8678 39.8579 77.9196 39.8579 79.9413C39.8579 81.9629 39.0121 83.0147 37.5127 83.0147H35.8211Z" fill="#2F327D"/>
<path d="M53.6264 77.7628C53.6264 76.0622 52.4565 74.6074 49.7873 74.6074H45.1023C44.8442 74.6074 44.6465 74.8465 44.6465 75.1675V85.3713C44.6465 85.6923 44.8442 85.9382 45.1023 85.9382H50.3091C53.0442 85.9382 54.28 84.3946 54.28 82.6189C54.28 80.5153 52.3247 80.0235 52.3247 80.0235V79.8664C52.3247 79.8664 53.6264 79.3815 53.6264 77.7628ZM50.3091 81.4032C50.9626 81.4032 51.2867 81.8061 51.2867 82.373C51.2867 82.9399 50.9626 83.3428 50.3091 83.3428H47.508V81.4032H50.3091ZM49.7873 77.1959C50.3859 77.1959 50.6331 77.517 50.6331 78.0019C50.6331 78.4868 50.375 78.8146 49.7873 78.8146H47.508V77.1959H49.7873Z" fill="#2F327D"/>
<path d="M63.9139 83.7526C63.9139 83.4248 63.7162 83.1858 63.458 83.1858H58.5754V75.1675C58.5754 74.8465 58.3776 74.6074 58.1195 74.6074H56.1697C55.9061 74.6074 55.7139 74.8465 55.7139 75.1675V85.3713C55.7139 85.6923 55.9061 85.9382 56.1697 85.9382H63.458C63.7162 85.9382 63.9139 85.6923 63.9139 85.3713V83.7526Z" fill="#2F327D"/>
<path d="M69.7682 83.5884C68.3347 83.5884 67.4285 82.4546 67.4285 80.2691C67.4285 78.0835 68.3347 76.9498 69.7682 76.9498C71.2017 76.9498 72.1134 78.0835 72.1134 80.2691C72.1134 82.4546 71.2017 83.5884 69.7682 83.5884ZM69.7682 74.2793C66.319 74.2793 64.4297 76.6288 64.4297 80.2691C64.4297 83.9094 66.319 86.2589 69.7682 86.2589C73.2174 86.2589 75.1067 83.9094 75.1067 80.2691C75.1067 76.6288 73.2174 74.2793 69.7682 74.2793Z" fill="#2F327D"/>
<path d="M79.3374 77.9196C79.3374 77.4347 79.7273 76.9498 80.9027 76.9498C81.8748 76.9498 82.2813 77.4347 82.3966 77.6806C82.5778 78.0835 82.7866 78.3294 83.1765 78.3294H84.8077C85.1318 78.3294 85.324 78.0835 85.324 77.6806C85.324 76.0619 83.896 74.2793 80.9027 74.2793C77.7117 74.2793 76.3441 75.9799 76.3441 77.9196C76.3441 82.4546 82.6547 80.9179 82.6547 82.5366C82.6547 83.0215 82.2044 83.5884 80.9027 83.5884C79.601 83.5884 79.2056 83.1035 79.0133 82.7005C78.8321 82.3112 78.6234 82.0517 78.2334 82.0517H76.6022C76.2782 82.0517 76.0859 82.2907 76.0859 82.7005C76.0859 84.4763 77.5139 86.2589 80.9027 86.2589C84.22 86.2589 85.6535 84.4763 85.6535 82.5366C85.6535 78.0016 79.3374 79.5383 79.3374 77.9196Z" fill="#2F327D"/>
<path d="M89.6841 77.9196C89.6841 77.4347 90.074 76.9498 91.2494 76.9498C92.2215 76.9498 92.628 77.4347 92.7433 77.6806C92.9245 78.0835 93.1333 78.3294 93.5232 78.3294H95.1544C95.4785 78.3294 95.6707 78.0835 95.6707 77.6806C95.6707 76.0619 94.2427 74.2793 91.2494 74.2793C88.0583 74.2793 86.6908 75.9799 86.6908 77.9196C86.6908 82.4546 93.0069 80.9179 93.0069 82.5366C93.0069 83.0215 92.5511 83.5884 91.2494 83.5884C89.9477 83.5884 89.5577 83.1035 89.36 82.7005C89.1788 82.3112 88.9701 82.0517 88.5801 82.0517H86.9544C86.6248 82.0517 86.4326 82.2907 86.4326 82.7005C86.4326 84.4763 87.8606 86.2589 91.2494 86.2589C94.5668 86.2589 96.0003 84.4763 96.0003 82.5366C96.0003 78.0016 89.6841 79.5383 89.6841 77.9196Z" fill="#2F327D"/>
<defs>
<linearGradient id="paint0_linear_29852_5062" x1="18.1099" y1="4.43215" x2="37.7169" y2="58.6878" gradientUnits="userSpaceOnUse">
<stop stop-color="#572EFF"/>
<stop offset="0.5" stop-color="#364CA0"/>
<stop offset="1" stop-color="#572EFF"/>
</linearGradient>
<linearGradient id="paint1_linear_29852_5062" x1="11.2851" y1="1.39548" x2="15.2637" y2="60.3043" gradientUnits="userSpaceOnUse">
<stop stop-color="#6CC3F4"/>
<stop offset="0.17" stop-color="#80ABE9"/>
<stop offset="0.53" stop-color="#B26DCD"/>
<stop offset="1" stop-color="#FA15A6"/>
</linearGradient>
<linearGradient id="paint2_linear_29852_5062" x1="50.8175" y1="21.0499" x2="70.354" y2="59.0028" gradientUnits="userSpaceOnUse">
<stop stop-color="#572EFF"/>
<stop offset="0.5" stop-color="#364CA0"/>
<stop offset="1" stop-color="#572EFF"/>
</linearGradient>
<linearGradient id="paint3_linear_29852_5062" x1="82.2374" y1="59.0157" x2="75.5429" y2="32.3946" gradientUnits="userSpaceOnUse">
<stop stop-color="#6CC3F4"/>
<stop offset="0.17" stop-color="#80ABE9"/>
<stop offset="0.53" stop-color="#B26DCD"/>
<stop offset="1" stop-color="#FA15A6"/>
</linearGradient>
<linearGradient id="paint4_linear_29852_5062" x1="42.1669" y1="19.6071" x2="46.147" y2="59.3411" gradientUnits="userSpaceOnUse">
<stop stop-color="#6CC3F4"/>
<stop offset="0.17" stop-color="#80ABE9"/>
<stop offset="0.53" stop-color="#B26DCD"/>
<stop offset="1" stop-color="#FA15A6"/>
</linearGradient>
</defs>
</svg>
