<svg width="226" height="267" viewBox="0 0 226 267" fill="none" xmlns="http://www.w3.org/2000/svg">
<path d="M10.112 266V243.44H15.008L22.208 256.368L29.408 243.44H34.176V266H28.864V253.744L23.712 262.672H20.512L15.424 253.872V266H10.112ZM38.3293 266V243.44H44.2173V266H38.3293ZM48.298 266V243.44H52.618L62.986 256.368V243.44H68.426V266H64.138L53.77 253.072V266H48.298ZM72.548 266V243.44H81.892C85.796 243.44 88.8253 244.421 90.98 246.384C93.1347 248.347 94.212 251.12 94.212 254.704C94.212 258.288 93.1347 261.072 90.98 263.056C88.8253 265.019 85.796 266 81.892 266H72.548ZM78.436 261.232H81.508C83.748 261.232 85.4013 260.699 86.468 259.632C87.556 258.544 88.1 256.901 88.1 254.704C88.1 252.507 87.556 250.875 86.468 249.808C85.38 248.741 83.7267 248.208 81.508 248.208H78.436V261.232ZM97.7043 266V243.44H108.584C111.016 243.44 112.894 243.973 114.216 245.04C115.56 246.085 116.232 247.493 116.232 249.264C116.232 250.437 115.934 251.461 115.336 252.336C114.76 253.211 113.95 253.861 112.904 254.288C114.163 254.672 115.134 255.323 115.816 256.24C116.499 257.136 116.84 258.256 116.84 259.6C116.84 261.584 116.126 263.152 114.696 264.304C113.288 265.435 111.358 266 108.904 266H97.7043ZM103.336 252.4H107.528C108.595 252.4 109.374 252.208 109.864 251.824C110.376 251.44 110.632 250.853 110.632 250.064C110.632 249.275 110.376 248.699 109.864 248.336C109.374 247.952 108.595 247.76 107.528 247.76H103.336V252.4ZM103.336 261.68H108.104C109.192 261.68 109.982 261.477 110.472 261.072C110.984 260.645 111.24 260.016 111.24 259.184C111.24 258.352 110.984 257.733 110.472 257.328C109.982 256.923 109.192 256.72 108.104 256.72H103.336V261.68ZM120.173 266V243.44H126.061V261.104H136.109V266H120.173ZM148.522 266.352C146.239 266.352 144.234 265.872 142.506 264.912C140.799 263.931 139.466 262.565 138.506 260.816C137.546 259.067 137.066 257.029 137.066 254.704C137.066 252.357 137.535 250.32 138.474 248.592C139.434 246.843 140.778 245.488 142.506 244.528C144.234 243.568 146.239 243.088 148.522 243.088C150.804 243.088 152.799 243.568 154.506 244.528C156.234 245.488 157.578 246.843 158.538 248.592C159.498 250.32 159.978 252.357 159.978 254.704C159.978 257.029 159.498 259.067 158.538 260.816C157.578 262.565 156.234 263.931 154.506 264.912C152.799 265.872 150.804 266.352 148.522 266.352ZM148.522 261.424C150.186 261.424 151.487 260.837 152.426 259.664C153.386 258.469 153.866 256.816 153.866 254.704C153.866 252.592 153.396 250.949 152.458 249.776C151.519 248.603 150.207 248.016 148.522 248.016C146.836 248.016 145.524 248.603 144.586 249.776C143.647 250.949 143.178 252.592 143.178 254.704C143.178 256.816 143.647 258.469 144.586 259.664C145.524 260.837 146.836 261.424 148.522 261.424ZM171.838 266.352C170.068 266.352 168.372 266.139 166.75 265.712C165.129 265.264 163.796 264.677 162.75 263.952L164.382 259.376C165.364 260.037 166.516 260.56 167.838 260.944C169.161 261.328 170.494 261.52 171.838 261.52C173.246 261.52 174.228 261.339 174.782 260.976C175.358 260.592 175.646 260.123 175.646 259.568C175.646 259.077 175.444 258.683 175.038 258.384C174.654 258.085 173.961 257.829 172.958 257.616L169.214 256.816C165.161 255.941 163.134 253.819 163.134 250.448C163.134 248.976 163.529 247.685 164.318 246.576C165.129 245.467 166.249 244.613 167.678 244.016C169.108 243.397 170.772 243.088 172.67 243.088C174.228 243.088 175.7 243.312 177.086 243.76C178.494 244.187 179.636 244.773 180.51 245.52L178.878 249.808C178.068 249.211 177.129 248.752 176.062 248.432C174.996 248.091 173.844 247.92 172.606 247.92C171.412 247.92 170.494 248.133 169.854 248.56C169.214 248.965 168.894 249.499 168.894 250.16C168.894 250.629 169.086 251.013 169.47 251.312C169.854 251.611 170.537 251.867 171.518 252.08L175.23 252.88C179.348 253.755 181.406 255.824 181.406 259.088C181.406 260.56 181.012 261.84 180.222 262.928C179.433 264.016 178.324 264.859 176.894 265.456C175.465 266.053 173.78 266.352 171.838 266.352ZM192.682 266.352C190.911 266.352 189.215 266.139 187.594 265.712C185.973 265.264 184.639 264.677 183.594 263.952L185.226 259.376C186.207 260.037 187.359 260.56 188.682 260.944C190.005 261.328 191.338 261.52 192.682 261.52C194.09 261.52 195.071 261.339 195.626 260.976C196.202 260.592 196.49 260.123 196.49 259.568C196.49 259.077 196.287 258.683 195.882 258.384C195.498 258.085 194.805 257.829 193.802 257.616L190.058 256.816C186.005 255.941 183.978 253.819 183.978 250.448C183.978 248.976 184.373 247.685 185.162 246.576C185.973 245.467 187.093 244.613 188.522 244.016C189.951 243.397 191.615 243.088 193.514 243.088C195.071 243.088 196.543 243.312 197.93 243.76C199.338 244.187 200.479 244.773 201.354 245.52L199.722 249.808C198.911 249.211 197.973 248.752 196.906 248.432C195.839 248.091 194.687 247.92 193.45 247.92C192.255 247.92 191.338 248.133 190.698 248.56C190.058 248.965 189.738 249.499 189.738 250.16C189.738 250.629 189.93 251.013 190.314 251.312C190.698 251.611 191.381 251.867 192.362 252.08L196.074 252.88C200.191 253.755 202.25 255.824 202.25 259.088C202.25 260.56 201.855 261.84 201.066 262.928C200.277 264.016 199.167 264.859 197.738 265.456C196.309 266.053 194.623 266.352 192.682 266.352Z" fill="#2F327D"/>
<path d="M86.8932 180.782H85.9605L50.0516 83.6412L24.4023 13.558C25.6816 12.118 27.0855 10.7826 28.5995 9.5659C32.8713 6.0791 37.8441 3.45524 43.2156 1.8539C48.5871 0.252564 54.2449 -0.292779 59.8449 0.251042L96.2202 98.7225L121.869 167.919C117.465 172.468 112.021 175.994 105.956 178.224C99.8917 180.454 93.3696 181.33 86.8932 180.782Z" fill="url(#paint0_linear_29852_5064)"/>
<path d="M18.3342 181.238C15.6327 180.963 13.0156 180.18 10.6347 178.935C8.25377 177.691 6.15648 176.008 4.46452 173.986C2.77256 171.964 1.51961 169.643 0.778383 167.157C0.0371561 164.671 -0.177591 162.069 0.146602 159.504L14.6034 35.306C15.5942 26.6635 19.524 18.5649 25.7958 12.2407L29.5266 8.6922C33.8143 5.41836 38.7432 2.98746 44.027 1.54069C49.3108 0.0939217 54.8442 -0.339869 60.3057 0.264504L41.1854 163.939C40.5312 169.105 37.8697 173.852 33.7238 177.246C31.5822 178.878 29.1114 180.074 26.4643 180.76C23.8172 181.447 21.0501 181.61 18.3342 181.238Z" fill="url(#paint1_linear_29852_5064)"/>
<path d="M176.424 180.333L136.785 110.694L109.736 63.2322L112.068 61.0144C116.207 57.4698 121.094 54.8055 126.401 53.1993C131.709 51.593 137.315 51.0817 142.847 51.6995L143.78 52.5867L182.953 122.226L210.002 169.244L207.67 171.019C203.46 174.598 198.494 177.282 193.106 178.888C187.717 180.494 182.03 180.987 176.424 180.333Z" fill="url(#paint2_linear_29852_5064)"/>
<path d="M175.959 180.364L184.353 109.838C184.665 107.227 185.527 104.702 186.89 102.415C188.252 100.128 190.086 98.1272 192.281 96.5311C194.322 94.887 196.711 93.6796 199.286 92.9908C201.861 92.302 204.561 92.1479 207.204 92.539C209.947 92.759 212.615 93.5014 215.049 94.7222C217.484 95.9429 219.636 97.617 221.376 99.6449C223.116 101.673 224.41 104.013 225.18 106.526C225.95 109.039 226.181 111.674 225.858 114.274L222.128 145.767C220.917 155.327 216.114 164.149 208.603 170.606C208.137 171.05 207.204 171.493 206.738 172.38C202.415 175.576 197.47 177.927 192.187 179.298C186.905 180.668 181.389 181.03 175.959 180.364Z" fill="url(#paint3_linear_29852_5064)"/>
<path d="M85.9541 180.35L97.1465 84.9841C98.5103 75.9474 103.125 67.6397 110.204 61.4752C110.756 60.6567 111.575 60.0333 112.536 59.7009C120.958 53.3146 131.661 50.2925 142.382 51.2732H142.849L132.123 147.083C130.874 155.485 126.781 163.27 120.464 169.261C116.04 173.569 110.607 176.82 104.609 178.747C98.6109 180.675 92.2183 181.224 85.9541 180.35Z" fill="url(#paint4_linear_29852_5064)"/>
<defs>
<linearGradient id="paint0_linear_29852_5064" x1="42.3372" y1="11.8809" x2="106.963" y2="168.886" gradientUnits="userSpaceOnUse">
<stop stop-color="#572EFF"/>
<stop offset="0.5" stop-color="#364CA0"/>
<stop offset="1" stop-color="#572EFF"/>
</linearGradient>
<linearGradient id="paint1_linear_29852_5064" x1="24.4005" y1="2.79725" x2="37.9461" y2="178.884" gradientUnits="userSpaceOnUse">
<stop stop-color="#6CC3F4"/>
<stop offset="0.17" stop-color="#80ABE9"/>
<stop offset="0.53" stop-color="#B26DCD"/>
<stop offset="1" stop-color="#FA15A6"/>
</linearGradient>
<linearGradient id="paint2_linear_29852_5064" x1="128.289" y1="61.615" x2="190.988" y2="168.555" gradientUnits="userSpaceOnUse">
<stop stop-color="#572EFF"/>
<stop offset="0.5" stop-color="#364CA0"/>
<stop offset="1" stop-color="#572EFF"/>
</linearGradient>
<linearGradient id="paint3_linear_29852_5064" x1="210.854" y1="175.266" x2="188.427" y2="96.9692" gradientUnits="userSpaceOnUse">
<stop stop-color="#6CC3F4"/>
<stop offset="0.17" stop-color="#80ABE9"/>
<stop offset="0.53" stop-color="#B26DCD"/>
<stop offset="1" stop-color="#FA15A6"/>
</linearGradient>
<linearGradient id="paint4_linear_29852_5064" x1="105.558" y1="57.311" x2="119.087" y2="175.892" gradientUnits="userSpaceOnUse">
<stop stop-color="#6CC3F4"/>
<stop offset="0.17" stop-color="#80ABE9"/>
<stop offset="0.53" stop-color="#B26DCD"/>
<stop offset="1" stop-color="#FA15A6"/>
</linearGradient>
</defs>
</svg>
